<svg xmlns="http://www.w3.org/2000/svg" width="400" height="400" style="shape-rendering:geometricPrecision;text-rendering:geometricPrecision;image-rendering:optimizeQuality;fill-rule:evenodd;clip-rule:evenodd"><path fill="#5b6ea2" d="M130.5 42.5a513.956 513.956 0 0 1 54 1.5l3.5 3.5c.04 12.096.707 24.096 2 36a16385.36 16385.36 0 0 0 20 14 1208.477 1208.477 0 0 1 31.5-10c3.372.769 6.205 2.435 8.5 5a13801.546 13801.546 0 0 1 15.5 47 69.875 69.875 0 0 1-9 11 1955.86 1955.86 0 0 0-37.5 37 11.532 11.532 0 0 0-1.5 5.5c3.488 12.517-.512 21.684-12 27.5a57.09 57.09 0 0 0-7-5.5c-2-.667-4-.667-6 0a70.588 70.588 0 0 0-10.5 9.5c-1.252 2.514-1.752 5.18-1.5 8-11.749-9.08-21.749-19.747-30-32 28.009-4.19 41.176-20.523 39.5-49-8.721-26.616-26.888-37.116-54.5-31.5a72 72 0 0 0-10 5.5 415.672 415.672 0 0 1 5-83Z" style="opacity:.993"/><path fill="#526391" d="M130.5 42.5a415.672 415.672 0 0 0-5 83c-19.307 15.436-23.141 34.103-11.5 56 8.474 12.646 20.307 18.98 35.5 19h1c8.251 12.253 18.251 22.92 30 32 5.305 5.64 10.639 11.307 16 17a443.547 443.547 0 0 1-17.5 18c-.383-.556-.883-.889-1.5-1a173.55 173.55 0 0 0-17-21.5 132.434 132.434 0 0 0-23 0 227.091 227.091 0 0 0-19 24.5c-3.025 3.173-6.692 4.34-11 3.5a1421.084 1421.084 0 0 1-52-37c-4.555-4.433-5.055-9.266-1.5-14.5a257.255 257.255 0 0 0 17.5-25 85.713 85.713 0 0 1-6.5-20l-3.5-3.5A181.312 181.312 0 0 1 30 161.5c-1.91-4.65-1.91-9.316 0-14a1225.499 1225.499 0 0 1 19.5-57c2.058-1.577 4.392-2.577 7-3a319.462 319.462 0 0 1 29 9.5c1.333.667 2.667.667 4 0A213.707 213.707 0 0 0 109 81.5l1-34c1.762-2.768 4.262-4.268 7.5-4.5a84.94 84.94 0 0 1 13-.5Z" style="opacity:.995"/><path fill="#f7b96e" d="M258.5 242.5c-11.111-11.814-16.444-25.981-16-42.5.345-8.62 1.512-17.12 3.5-25.5a351.973 351.973 0 0 1 10.5-24 69.875 69.875 0 0 0 9-11 2698.476 2698.476 0 0 0 44-43.5c9.896-7.097 19.896-7.264 30-.5a1087.872 1087.872 0 0 1 27.5 28c5.265 9.919 4.432 19.253-2.5 28l-90 90c-2.277 1.423-4.777 2.089-7.5 2a330.405 330.405 0 0 1-8.5-1Z" style="opacity:.99"/><path fill="#86dad4" d="M150.5 200.5h-1a156.732 156.732 0 0 1-9-18c18.753 3.457 29.753-4.21 33-23-1.566-14.733-9.733-23.066-24.5-25-9.247 1.114-16.414 5.447-21.5 13a172.573 172.573 0 0 0-2-22 72 72 0 0 1 10-5.5c27.612-5.616 45.779 4.884 54.5 31.5 1.676 28.477-11.491 44.81-39.5 49Z" style="opacity:.985"/><path fill="#78c4be" d="M125.5 125.5a172.573 172.573 0 0 1 2 22c-5.739 15.454-1.405 27.121 13 35a156.732 156.732 0 0 0 9 18c-15.193-.02-27.026-6.354-35.5-19-11.641-21.897-7.807-40.564 11.5-56Z" style="opacity:.997"/><path fill="#fce17b" d="M319.5 126.5c12.364-1.143 16.864 4.19 13.5 16L265.5 210c-9.104 5.035-14.771 2.535-17-7.5a12.862 12.862 0 0 1 1.5-6 6871.883 6871.883 0 0 0 69.5-70Z" style="opacity:1"/><path fill="#dda662" d="M256.5 150.5a351.973 351.973 0 0 0-10.5 24 133.313 133.313 0 0 0-3.5 25.5c-.444 16.519 4.889 30.686 16 42.5-7.631 1.487-13.631 5.487-18 12a590.126 590.126 0 0 1-30-28l-5-6c11.488-5.816 15.488-14.983 12-27.5a11.532 11.532 0 0 1 1.5-5.5 1955.86 1955.86 0 0 1 37.5-37Z" style="opacity:.998"/><path fill="#e2ca6f" d="m205.5 220.5 5 6c-2.932 7.69-3.765 15.69-2.5 24a217.946 217.946 0 0 0 7.5 18l-4-3a85.017 85.017 0 0 0-15-16c-5.361-5.693-10.695-11.36-16-17-.252-2.82.248-5.486 1.5-8a70.588 70.588 0 0 1 10.5-9.5c2-.667 4-.667 6 0a57.09 57.09 0 0 1 7 5.5Z" style="opacity:1"/><path fill="#fce27d" d="M210.5 226.5a590.126 590.126 0 0 0 30 28 46.081 46.081 0 0 0 5.5 6c.667 3 .667 6 0 9a78.213 78.213 0 0 1-10.5 10.5c-3.464.817-6.798.483-10-1a147.277 147.277 0 0 1-10-10.5 217.946 217.946 0 0 1-7.5-18c-1.265-8.31-.432-16.31 2.5-24Z" style="opacity:.989"/><path fill="#4a515a" d="M196.5 249.5a85.017 85.017 0 0 1 15 16 3565.714 3565.714 0 0 0-50.5 50c-3.642 9.293-7.309 18.627-11 28a17.842 17.842 0 0 1-5.5 4.5 436.194 436.194 0 0 1-23.5 8.5c-5.539-3.029-10.372-7.029-14.5-12-1.157-3.284-1.324-6.618-.5-10 2.501-6.672 5.001-13.339 7.5-20a31.84 31.84 0 0 1 5-4.5 511.597 511.597 0 0 0 24-9 244.725 244.725 0 0 0 35-34.5c.617.111 1.117.444 1.5 1a443.547 443.547 0 0 0 17.5-18Z" style="opacity:.978"/></svg>